<?xml version="1.0" encoding="iso-8859-1"?>
<!-- Generator: Adobe Illustrator 16.0.0, SVG Export Plug-In . SVG Version: 6.00 Build 0)  -->
<!DOCTYPE svg PUBLIC "-//W3C//DTD SVG 1.1//EN" "http://www.w3.org/Graphics/SVG/1.1/DTD/svg11.dtd">
<svg version="1.1" id="Capa_1" xmlns="http://www.w3.org/2000/svg" xmlns:xlink="http://www.w3.org/1999/xlink" x="0px" y="0px"
	 width="107.112px" height="107.112px" viewBox="0 0 107.112 107.112" style="enable-background:new 0 0 107.112 107.112;"
	 xml:space="preserve">
<g>
	<path d="M53.556,0C24.025,0,0,24.025,0,53.557c0,29.531,24.025,53.556,53.556,53.556s53.556-24.024,53.556-53.556
		C107.112,24.025,83.087,0,53.556,0z M86.085,22.621c0.394,0.318,0.438,0.539-0.123,0.664c-0.088-0.084-0.174-0.168-0.262-0.251
		c-0.14-0.162-0.31-0.195-0.515-0.162c-0.258,0.042-0.346-0.108-0.317-0.337c0.026-0.248,0.188-0.317,0.408-0.246
		C85.553,22.379,85.844,22.424,86.085,22.621z M0.75,53.557C0.75,24.439,24.438,0.75,53.556,0.75c2.281,0,4.524,0.162,6.729,0.444
		C66.717,2.81,72.479,6.819,77.574,13.21c0.006,0.003,0.014,0.003,0.02,0.006c0.385,0.227,0.709,0.541,1.227,0.523
		c0.189-0.006,0.539,0.128,0.484,0.572c-0.047,0.369,0.594,0.341,0.619,0.751l0.002,0.001c0.44-0.042,0.709,0.244,0.983,0.518
		c0.138,0.103,0.299,0.188,0.448,0.212c0.355,0.058,0.558,0.235,0.699,0.56c0.111,0.249,0.289,0.445,0.601,0.541
		c0.437,0.133,0.573,0.544,0.471,0.938c-0.104,0.401-0.004,0.676,0.244,0.968c0.613,0.72,0.541,2.103-0.155,2.732
		c-0.037,0.033-0.068,0.071-0.102,0.108c0.977,1.819,1.852,3.697,2.633,5.629c0.046-0.123,0.088-0.246,0.116-0.376
		c0.065-0.308,0.233-0.554,0.596-0.508c0.359,0.046,0.515-0.098,0.615-0.435c0.094-0.306,0.354-0.43,0.69-0.412
		c0.31,0.016,0.486,0.126,0.588,0.429c0.058,0.164,0.193,0.314,0.382,0.535c-0.537-0.671-0.726-1.406-1.027-2.078
		c-0.205-0.46-0.762-0.494-0.887-0.969c-0.123-0.467-0.048-1.015-0.459-1.374c-0.44-0.384-0.214-0.803-0.106-1.219
		c0.028-0.117,0.151-0.13,0.256-0.151c0.02,0.003,0.032,0.014,0.053,0.018c0.016-0.105-0.098-0.168-0.211-0.231v-0.655
		c0.646,0.533,1.256,0.965,1.772,1.486c0.394,0.394,0.894,0.622,1.291,0.992c0.354,0.327,0.134,0.398-0.174,0.451
		c0.004,0.125,0.01,0.25,0.017,0.374c-0.052,0.139-0.105,0.275-0.148,0.415c-0.098,0.314-0.244,0.438-0.523,0.16
		c-0.119-0.117-0.285-0.277-0.43-0.13c-0.156,0.158,0.041,0.307,0.145,0.422c0.248,0.275,0.717,0.46,0.34,0.958
		c-0.014,0.018,0.015,0.099,0.039,0.109c0.689,0.257,0.767,1.233,1.588,1.343c0.285,0.038,0.382,0.229,0.248,0.512
		c-0.106,0.229-0.096,0.475,0.104,0.637c0.229,0.187,0.242-0.128,0.36-0.203c0.087-0.053,0.177-0.041,0.22,0.041
		c0.119,0.222,0.285,0.485,0.099,0.703c-0.269,0.314-0.347,0.587-0.111,0.953c0.111,0.174,0.057,0.314-0.215,0.288
		c-0.424-0.042-0.438,0.307-0.504,0.587c-0.09,0.378,0.186,0.349,0.43,0.444c0.309,0.121,0.416,0.479,0.602,0.75
		c0.301,0.44,0.301,0.955,0.486,1.417c0.08,0.198,0.057,0.418-0.152,0.564c-0.443,0.31-0.549,0.778-0.561,1.273
		c-0.018,0.712-0.182,1.383,0.139,2.14c0.271,0.642,0.779,0.712,1.205,0.947c0.799,0.441,1.08,0.835,0.859,1.712
		c-0.086,0.341-0.09,0.64,0.01,0.974c0.145,0.485,0.41,0.963,0.127,1.5c-0.078,0.152,0.062,0.318,0.195,0.433
		c0.623,0.536,0.625,1.19,0.363,1.896c-0.029,0.054-0.07,0.095-0.127,0.121c-0.386-0.035-0.365-0.474-0.628-0.638
		c-0.094,0.09-0.114,0.224-0.049,0.287c0.813,0.756,0.731,1.739,0.533,2.648c-0.175,0.804-0.875,1.257-1.646,1.533
		c-0.242-0.029-0.312-0.204-0.298-0.401c0.043-0.582-0.327-0.868-0.764-1.118c-0.961-0.551-1.015-0.707-0.67-1.771
		c0.114-0.357,0.262-0.707,0.307-1.085c0.022-0.19,0.074-0.379,0.283-0.446c0.248-0.08,0.313,0.162,0.45,0.276
		c-0.002-0.011,0.011-0.017-0.006-0.029c-0.369-0.275-0.104-0.63-0.119-0.949c-0.004-0.086-0.012-0.171-0.016-0.257
		c0.164-0.303,0.176-0.609-0.088-0.849c-0.189-0.175-0.104-0.381-0.146-0.572c-0.002-0.024-0.01-0.04-0.012-0.062
		c-0.24-0.025-0.479-0.047-0.711-0.1c-0.166-0.038-0.309-0.108-0.414-0.216c-0.053,0.001-0.106,0.006-0.16,0.019
		c-0.049,0.03-0.1,0.049-0.151,0.068c-0.078-0.011-0.136,0.012-0.19,0.037c-0.029,0.133-0.023,0.272-0.031,0.409
		c0.652,4.001,0.984,8.188,0.984,12.569c0,14.647-3.619,27.158-10.863,37.532c-6.063,8.683-13.148,13.718-21.246,15.132
		c-1.596,0.145-3.207,0.23-4.838,0.23C24.439,106.362,0.75,82.674,0.75,53.557z"/>
</g>
<g>
</g>
<g>
</g>
<g>
</g>
<g>
</g>
<g>
</g>
<g>
</g>
<g>
</g>
<g>
</g>
<g>
</g>
<g>
</g>
<g>
</g>
<g>
</g>
<g>
</g>
<g>
</g>
<g>
</g>
</svg>
