<?xml version="1.0" encoding="iso-8859-1"?>
<!-- Generator: Adobe Illustrator 19.0.0, SVG Export Plug-In . SVG Version: 6.00 Build 0)  -->
<svg version="1.1" id="Layer_1" xmlns="http://www.w3.org/2000/svg" xmlns:xlink="http://www.w3.org/1999/xlink" x="0px" y="0px"
	 viewBox="0 0 504.147 504.147" style="enable-background:new 0 0 504.147 504.147;" xml:space="preserve">
<path style="fill:#8C8883;" d="M397.017,370.594c-145.51,0-263.459-117.941-263.459-263.459c0-38.156,8.184-74.382,22.788-107.126
	C64.232,41.07,0.012,133.364,0.012,240.703c0,145.495,117.965,263.444,263.452,263.444c107.339,0,199.625-64.228,240.672-156.325
	C471.406,362.409,435.172,370.594,397.017,370.594z"/>
<path style="fill:#7C7B7A;" d="M305.471,435.877c77.296,0,146.684-33.422,194.851-86.473
	c-31.736,13.556-66.615,21.181-103.306,21.181c-145.51,0-263.459-117.941-263.459-263.459c0-38.156,8.184-74.382,22.788-107.126
	c-36.328,16.211-68.206,40.464-93.633,70.38c-13.233,31.397-20.693,65.827-20.693,102.053
	C42.019,317.921,159.976,435.877,305.471,435.877z"/>
<g>
	<circle style="fill:#99948F;" cx="45.115" cy="336.754" r="5.908"/>
	<circle style="fill:#99948F;" cx="77.284" cy="374.17" r="7.877"/>
	<circle style="fill:#99948F;" cx="41.83" cy="256.016" r="6.561"/>
	<circle style="fill:#99948F;" cx="100.246" cy="264.523" r="16.408"/>
	<circle style="fill:#99948F;" cx="195.438" cy="418.808" r="3.938"/>
	<circle style="fill:#99948F;" cx="237.446" cy="385.985" r="6.561"/>
	<circle style="fill:#99948F;" cx="364.784" cy="460.816" r="6.561"/>
	<circle style="fill:#99948F;" cx="351.008" cy="414.184" r="15.1"/>
</g>
<g>
	<ellipse style="fill:#D6C77C;" cx="308" cy="114.546" rx="6.561" ry="62.031"/>
	
		<ellipse transform="matrix(0.7068 -0.7074 0.7074 0.7068 9.2758 251.4819)" style="fill:#D6C77C;" cx="308.021" cy="114.551" rx="62.03" ry="6.554"/>
	<ellipse style="fill:#D6C77C;" cx="308" cy="114.546" rx="62.023" ry="6.561"/>
	
		<ellipse transform="matrix(0.7068 0.7074 -0.7074 0.7068 171.352 -184.2723)" style="fill:#D6C77C;" cx="307.979" cy="114.58" rx="62.03" ry="6.561"/>
</g>
<g>
	<ellipse style="fill:#99948F;" cx="311.938" cy="279.962" rx="2.19" ry="20.677"/>
	
		<ellipse transform="matrix(0.7062 -0.708 0.708 0.7062 -106.5759 303.1035)" style="fill:#99948F;" cx="311.933" cy="279.969" rx="20.677" ry="2.182"/>
	<ellipse style="fill:#99948F;" cx="311.938" cy="279.962" rx="20.669" ry="2.19"/>
	
		<ellipse transform="matrix(0.7071 0.7071 -0.7071 0.7071 289.3351 -138.5806)" style="fill:#99948F;" cx="311.949" cy="279.968" rx="20.677" ry="2.19"/>
</g>
<g>
</g>
<g>
</g>
<g>
</g>
<g>
</g>
<g>
</g>
<g>
</g>
<g>
</g>
<g>
</g>
<g>
</g>
<g>
</g>
<g>
</g>
<g>
</g>
<g>
</g>
<g>
</g>
<g>
</g>
</svg>
