<?xml version="1.0" encoding="iso-8859-1"?>
<!-- Generator: Adobe Illustrator 18.0.0, SVG Export Plug-In . SVG Version: 6.00 Build 0)  -->
<!DOCTYPE svg PUBLIC "-//W3C//DTD SVG 1.1//EN" "http://www.w3.org/Graphics/SVG/1.1/DTD/svg11.dtd">
<svg version="1.1" id="Capa_1" xmlns="http://www.w3.org/2000/svg" xmlns:xlink="http://www.w3.org/1999/xlink" x="0px" y="0px"
	 viewBox="0 0 481.449 481.449" style="enable-background:new 0 0 481.449 481.449;" xml:space="preserve">
<g id="XMLID_54_">
	<path id="XMLID_56_" d="M441.104,352.888h-18.47c8.006-7.375,13.096-17.849,13.096-29.589c0-22.285-18.059-40.345-40.345-40.345
		h-26.824c-0.125-35.215-28.667-63.733-63.921-63.733c-13.681,0-26.287,4.382-36.674,11.694c-16.8-24.869-45.247-41.22-77.523-41.22
		c-51.551,0-93.33,41.731-93.44,93.259H86.065c-22.284,0-40.346,18.06-40.346,40.345c0,11.741,5.09,22.214,13.096,29.589h-18.47
		C18.061,352.888,0,370.948,0,393.233c0,22.285,18.061,40.345,40.346,40.345h400.758c22.285,0,40.346-18.06,40.346-40.345
		C481.449,370.948,463.389,352.888,441.104,352.888z"/>
	<path id="XMLID_55_" d="M196.256,125.854l26.048,23.964c0.727,0.668,1.02,1.675,0.783,2.633c-0.996,4.043-1.758,8.18-2.265,12.395
		c-0.123,1.019-0.8,1.885-1.767,2.228l-3.71,1.319c-2.543,0.904-2.322,4.557,0.309,5.16c21.29,4.887,40.742,15.885,55.941,31.723
		c0.765,0.797,1.925,1.047,2.953,0.642c9.54-3.756,19.705-5.698,30.091-5.698c22.11,0,42.905,8.598,58.554,24.21
		c9.529,9.508,16.462,20.935,20.443,33.412c0.573,1.798,2.745,2.463,4.235,1.305c0.015-0.012,0.03-0.023,0.045-0.035
		c0.811-0.63,1.901-0.764,2.828-0.323c0,0,14.878,5.457,19.972,7.187c2.19,0.745,4.159-1.647,3.166-3.737l-8.567-18.023
		c-0.44-0.926-0.309-2.015,0.325-2.821c2.188-2.79,4.24-5.693,6.14-8.703c0.526-0.833,1.454-1.321,2.438-1.262l35.34,2.138
		c2.532,0.153,3.854-2.957,1.988-4.674l-26.049-23.964c-0.726-0.668-1.018-1.675-0.783-2.633c0.997-4.044,1.758-8.18,2.265-12.394
		c0.123-1.019,0.8-1.885,1.767-2.229l21.823-7.76c2.389-0.85,2.389-4.229,0-5.079l-21.82-7.76c-0.969-0.344-1.647-1.211-1.77-2.232
		c-0.429-3.556-1.039-7.056-1.817-10.491c-0.219-0.964,0.094-1.968,0.833-2.623l26.495-23.473c1.898-1.682,0.634-4.816-1.899-4.71
		l-35.376,1.475c-0.985,0.041-1.905-0.465-2.415-1.309c-2.18-3.602-4.571-7.06-7.158-10.358c-0.633-0.807-0.766-1.896-0.325-2.823
		l9.948-20.928c1.089-2.29-1.301-4.68-3.591-3.591l-20.93,9.949c-0.926,0.44-2.015,0.308-2.821-0.325
		c-2.79-2.189-5.693-4.241-8.702-6.14c-0.833-0.526-1.321-1.454-1.263-2.438l2.138-35.34c0.153-2.532-2.957-3.854-4.674-1.987
		l-23.964,26.048c-0.668,0.726-1.676,1.019-2.633,0.783c-4.044-0.997-8.181-1.758-12.396-2.265
		c-1.019-0.123-1.885-0.799-2.229-1.766l-7.76-21.823c-0.851-2.39-4.229-2.39-5.079,0l-7.76,21.82
		c-0.345,0.968-1.212,1.646-2.232,1.769c-3.556,0.429-7.055,1.039-10.491,1.818c-0.964,0.218-1.968-0.094-2.623-0.834
		l-23.472-26.495c-1.682-1.898-4.816-0.634-4.711,1.9l1.475,35.375c0.041,0.985-0.465,1.905-1.309,2.416
		c-3.602,2.179-7.06,4.571-10.358,7.158c-0.807,0.633-1.897,0.766-2.822,0.325l-20.929-9.948c-2.291-1.089-4.681,1.301-3.592,3.591
		l9.949,20.929c0.439,0.926,0.308,2.015-0.325,2.821c-2.189,2.79-4.241,5.693-6.14,8.703c-0.526,0.833-1.454,1.321-2.438,1.262
		l-35.341-2.137C195.711,121.027,194.389,124.137,196.256,125.854z"/>
</g>
<g>
</g>
<g>
</g>
<g>
</g>
<g>
</g>
<g>
</g>
<g>
</g>
<g>
</g>
<g>
</g>
<g>
</g>
<g>
</g>
<g>
</g>
<g>
</g>
<g>
</g>
<g>
</g>
<g>
</g>
</svg>
